#N canvas 7 23 1114 851 10;
#X obj 1261 33 loadbang;
#X obj 671 40 r bela_digitalIn11;
#X obj 394 805 dac~;
#X obj 376 455 nbx 5 14 -1e+37 1e+37 0 0 empty empty empty 0 -8 0 10
-262144 -1 -1 50 256;
#X obj 376 395 loadbang;
#X obj 248 514 osc~ 440;
#X obj 671 117 tgl 15 0 empty empty empty 17 7 0 10 -262144 -1 -1 1
1;
#X obj 399 116 snapshot~;
#X floatatom 399 141 5 0 0 0 - - -, f 5;
#X obj 399 46 adc~ 3 4;
#X obj 509 117 snapshot~;
#X floatatom 518 143 5 0 0 0 - - -, f 5;
#X obj 509 89 metro 20;
#X obj 509 16 loadbang;
#X obj 509 64 tgl 15 0 empty empty empty 17 7 0 10 -262144 -1 -1 1
1;
#X msg 509 40 1;
#X obj 681 67 loadbang;
#X msg 376 426 440;
#X obj 35 125 tgl 15 0 empty empty empty 17 7 0 10 -262144 -1 -1 1
1;
#X obj 44 82 loadbang;
#X obj 35 52 r bela_digitalIn12;
#X obj 399 82 *~ 880;
#X obj 444 83 *~ 880;
#X obj 1262 103 s bela_setDigital;
#X msg 1261 73 in 11 \, in 12 \, out 13 \, out 14;
#X obj 695 390 s bela_digitalOut13;
#X obj 14 428 s bela_digitalOut14;
#X obj 356 295 bng 15 250 50 0 empty empty empty 17 7 0 10 -262144
-1 -1;
#X obj 356 319 random 600;
#X obj 356 344 + 50;
#X floatatom 356 367 5 0 0 0 - - -, f 5;
#X obj 348 246 metro 300;
#X obj 14 393 tgl 15 0 empty empty empty 17 7 0 10 -262144 -1 -1 1
1;
#X msg 681 92 1;
#X obj 497 678 *~;
#X obj 671 208 tgl 15 0 empty empty empty 17 7 0 10 -262144 -1 -1 1
1;
#X floatatom 671 228 5 0 0 0 - - -, f 5;
#X obj 671 147 bng 15 250 50 0 empty empty empty 17 7 0 10 -262144
-1 -1;
#X obj 704 162 tgl 15 0 empty empty empty 17 7 0 10 -262144 -1 -1 1
1;
#X obj 671 185 spigot;
#X obj 35 216 tgl 15 0 empty empty empty 17 7 0 10 -262144 -1 -1 1
1;
#X floatatom 35 236 5 0 0 0 - - -, f 5;
#X obj 35 155 bng 15 250 50 0 empty empty empty 17 7 0 10 -262144 -1
-1;
#X obj 68 170 tgl 15 0 empty empty empty 17 7 0 10 -262144 -1 -1 1
1;
#X obj 35 193 spigot;
#X obj 878 485 nbx 5 14 -1e+37 1e+37 0 0 empty empty empty 0 -8 0 10
-262144 -1 -1 15 256;
#X obj 941 465 nbx 5 14 -1e+37 1e+37 0 0 empty empty empty 0 -8 0 10
-262144 -1 -1 15 256;
#X msg 931 583 1 \$1 \, 0 \$2 \$1;
#X obj 931 509 pack f f;
#X obj 909 534 bng 15 250 50 0 empty empty empty 17 7 0 10 -262144
-1 -1;
#X msg 931 557 15 15;
#X msg 931 533 set \$1 \$2;
#X obj 941 485 t b f;
#X obj 931 606 vline~;
#X obj 911 403 loadbang;
#X text 678 16 right button;
#X text 50 24 left button;
#X text 730 371 red LED;
#X text 35 408 green LED;
#X text 398 159 left pot;
#X text 515 158 right pot;
#X text 1342 34 set up ins and outs;
#X msg 878 440 15;
#X msg 941 440 15;
#X obj 232 600 *~;
#X msg 44 102 1;
#X obj 475 515 phasor~ 440;
#X obj 475 544 *~ 2;
#X obj 475 570 -~ 1;
#X obj 475 600 *~;
#X obj 695 365 tgl 15 0 empty empty empty 17 7 0 10 -262144 -1 -1 1
1;
#X obj 695 338 spigot;
#X obj 497 636 *~;
#X obj 512 581 tgl 15 0 empty empty empty 17 7 0 10 -262144 -1 -1 1
1;
#X obj 251 646 *~;
#X obj 266 590 tgl 15 0 empty empty empty 17 7 0 10 -262144 -1 -1 1
1;
#X obj 251 679 *~;
#X floatatom 266 615 5 0 0 0 - - -, f 5;
#X floatatom 512 605 5 0 0 0 - - -, f 5;
#X obj 15 358 spigot;
#X obj 348 171 loadbang;
#X obj 348 223 tgl 15 0 empty empty empty 17 7 0 10 -262144 -1 -1 0
1;
#X msg 348 195 1;
#X text 850 530 trigger envelope;
#X text 802 436 attack time (ms);
#X text 983 433 decay time (ms);
#X text 229 239 speed of note intervals;
#X text 229 318 random frequency;
#X text 185 511 sine wave;
#X text 561 513 sawtooth wave;
#X text 916 363 Envelope;
#X text 322 594 only play when metro \, button toggle \, and adsr are
triggered;
#X connect 0 0 24 0;
#X connect 1 0 6 0;
#X connect 3 0 66 0;
#X connect 3 0 5 0;
#X connect 4 0 17 0;
#X connect 5 0 64 1;
#X connect 6 0 37 0;
#X connect 7 0 8 0;
#X connect 7 0 31 1;
#X connect 9 0 21 0;
#X connect 9 1 22 0;
#X connect 10 0 11 0;
#X connect 10 0 28 1;
#X connect 12 0 7 0;
#X connect 12 0 10 0;
#X connect 13 0 15 0;
#X connect 14 0 12 0;
#X connect 15 0 14 0;
#X connect 16 0 33 0;
#X connect 17 0 3 0;
#X connect 18 0 42 0;
#X connect 19 0 65 0;
#X connect 20 0 18 0;
#X connect 21 0 7 0;
#X connect 22 0 10 0;
#X connect 24 0 23 0;
#X connect 27 0 28 0;
#X connect 28 0 29 0;
#X connect 29 0 30 0;
#X connect 30 0 3 0;
#X connect 31 0 27 0;
#X connect 31 0 49 0;
#X connect 31 0 73 0;
#X connect 31 0 75 0;
#X connect 31 0 71 0;
#X connect 31 0 79 0;
#X connect 32 0 26 0;
#X connect 33 0 6 0;
#X connect 34 0 2 1;
#X connect 35 0 36 0;
#X connect 36 0 69 1;
#X connect 36 0 71 1;
#X connect 37 0 38 0;
#X connect 37 0 39 0;
#X connect 38 0 39 1;
#X connect 39 0 35 0;
#X connect 40 0 41 0;
#X connect 41 0 64 0;
#X connect 41 0 79 1;
#X connect 42 0 43 0;
#X connect 42 0 44 0;
#X connect 43 0 44 1;
#X connect 44 0 40 0;
#X connect 45 0 48 0;
#X connect 46 0 52 0;
#X connect 47 0 53 0;
#X connect 48 0 51 0;
#X connect 49 0 50 0;
#X connect 50 0 47 0;
#X connect 51 0 50 0;
#X connect 52 0 48 0;
#X connect 52 1 48 1;
#X connect 53 0 34 1;
#X connect 53 0 76 1;
#X connect 54 0 62 0;
#X connect 54 0 63 0;
#X connect 62 0 45 0;
#X connect 63 0 46 0;
#X connect 64 0 74 0;
#X connect 65 0 18 0;
#X connect 66 0 67 0;
#X connect 67 0 68 0;
#X connect 68 0 69 0;
#X connect 69 0 72 0;
#X connect 70 0 25 0;
#X connect 71 0 70 0;
#X connect 72 0 34 0;
#X connect 73 0 78 0;
#X connect 74 0 76 0;
#X connect 75 0 77 0;
#X connect 76 0 2 0;
#X connect 77 0 74 1;
#X connect 78 0 72 1;
#X connect 79 0 32 0;
#X connect 80 0 82 0;
#X connect 81 0 31 0;
#X connect 82 0 81 0;
